<svg height="512pt" viewBox="0 -16 512 512" width="512pt" xmlns="http://www.w3.org/2000/svg">
<linearGradient id="SVGID_1_" gradientUnits="userSpaceOnUse" x1="0" y1="257.9991" x2="512" y2="257.9991" gradientTransform="matrix(1 0 0 -1 0 513.9991)">
	<stop  offset="0" style="stop-color:rgba(0, 0, 0, 0.4);"/>
	<stop  offset="1" style="stop-color:rgba(0, 0, 0, 0.4);"/>
</linearGradient>
    <path style="fill:url(#SVGID_1_);"
        d="m467 30h-259.578125c-6.195313-17.460938-22.867187-30-42.421875-30h-120c-24.8125 0-45 20.1875-45 45v390c0 24.8125 20.1875 45 45 45h120c19.554688 0 36.226562-12.539062 42.421875-30h229.578125c8.285156 0 15-6.714844 15-15 0-41.355469-33.644531-75-75-75h-46v-30h136c24.8125 0 45-20.1875 45-45v-210c0-24.8125-20.1875-45-45-45zm15 45v165h-272v-180h257c8.269531 0 15 6.730469 15 15zm-272 285v-30h30v30zm-180-270h150v30h-150zm15-60h120c8.269531 0 15 6.730469 15 15v15h-150v-15c0-8.269531 6.730469-15 15-15zm120 420h-120c-8.269531 0-15-6.730469-15-15v-285h150v285c0 8.269531-6.730469 15-15 15zm254.429688-30h-209.429688v-30h167c19.558594 0 36.238281 12.539062 42.429688 30zm-118.429688-60h-31v-30h31zm166-60h-257v-30h272v15c0 8.269531-6.730469 15-15 15zm0 0" />
    <path style="fill:url(#SVGID_1_);"
        d="m105 330c-24.8125 0-45 20.1875-45 45s20.1875 45 45 45 45-20.1875 45-45-20.1875-45-45-45zm0 60c-8.269531 0-15-6.730469-15-15s6.730469-15 15-15 15 6.730469 15 15-6.730469 15-15 15zm0 0" />
    <path style="fill:url(#SVGID_1_);"
        d="m119.972656 285c0 8.285156-6.71875 15-15 15-8.285156 0-15-6.714844-15-15s6.714844-15 15-15c8.28125 0 15 6.714844 15 15zm0 0" />
    </svg>